<?xml version="1.0" encoding="UTF-8"?>
<svg id="Layer_1" xmlns="http://www.w3.org/2000/svg" version="1.1" viewBox="0 0 850.39 566.93">
  <!-- Generator: Adobe Illustrator 29.1.0, SVG Export Plug-In . SVG Version: 2.1.0 Build 142)  -->
  <defs>
    <style>
      .st0 {
        fill: #1a1a18;
      }

      .st1 {
        fill: #feea02;
      }
    </style>
  </defs>
  <path class="st0" d="M33.16,320.78h33.14v98.86h25.69v31.46h-58.83v-130.33Z"/>
  <path class="st0" d="M120.67,320.85h39.76l24.71,130.25h-32.89l-2.97-21h-18.21l-2.97,21h-32.14l24.71-130.25ZM145.57,403.17l-5.39-38.83-5.39,38.83h10.78Z"/>
  <path class="st0" d="M229.06,444.38v-31.58c7.76,4.69,17.32,8.3,25.08,8.3,5.41,0,8.3-2.53,8.3-6.5v-.36c0-3.97-3.61-7.04-9.74-11.91-16.78-13.53-25.44-22.38-25.44-41.68v-1.44c0-23.64,15.7-38.43,37.35-38.43,10.65,0,18.4,1.99,25.08,5.05v31.94c-7.4-4.15-15.52-6.32-21.83-6.32-5.59,0-8.3,2.89-8.3,6.32v.36c0,3.97,3.25,7.04,9.74,12.27,16.78,13.53,25.44,23.1,25.44,42.04v1.44c0,22.91-16.96,37.89-37.17,37.89-10.83,0-21.47-2.89-28.51-7.4Z"/>
  <path class="st0" d="M300.36,390.68v-8.37c0-44.55,23.1-61.46,46.55-61.46,8.18,0,13.27,1.45,18.73,4v32c-5.46-3.27-10-4.91-15.28-4.91-8.55,0-16.91,6.55-16.91,32v4.73c0,26.37,7.82,32,16.91,32,5.09,0,10-2,16-5.09v30.37c-6,3.82-12,5.82-21.64,5.82-24.18,0-44.37-19.45-44.37-61.1Z"/>
  <path class="st0" d="M454.56,321.04h32.68l17.37,50.43v-50.43h31.94v130.74h-31.19l-18.86-53.6v53.6h-31.94v-130.74Z"/>
  <path class="st0" d="M560.84,352.71h-18.32v-31.78h69.91v31.78h-18.32v99.07h-33.27v-99.07Z"/>
  <path class="st0" d="M618.39,320.93h63.37v31.59h-30.1v18.13h26.92v30.66h-26.92v18.88h30.66v31.59h-63.93v-130.85Z"/>
  <path class="st0" d="M688.28,320.93h33.27v130.85h-33.27v-130.85Z"/>
  <path class="st0" d="M752.37,320.59h40l24.86,131.03h-33.08l-2.99-21.12h-18.32l-2.99,21.12h-32.34l24.86-131.03ZM777.42,403.4l-5.42-39.07-5.42,39.07h10.84Z"/>
  <rect class="st1" x="363.01" y="117.38" width="103.85" height="142.56" transform="translate(-7.96 18.59) rotate(-2.54)"/>
  <path class="st0" d="M491.02,131.91h87.84v43.79h-41.72v25.13h37.31v42.5h-37.31v26.17h42.5v43.79h-88.62v-181.38Z"/>
  <path class="st0" d="M67.62,131.65h55.45l34.46,181.64h-45.86l-4.15-29.28h-25.39l-4.15,29.28h-44.83l34.46-181.64ZM102.34,246.43l-7.52-54.15-7.51,54.15h15.03Z"/>
  <path class="st0" d="M169.72,175.96h-25.39v-44.05h96.91v44.05h-25.39v137.33h-46.12v-137.33Z"/>
  <path class="st0" d="M248.49,131.91h87.84v43.79h-41.72v25.13h37.31v42.5h-37.31v26.17h42.5v43.79h-88.62v-181.38Z"/>
  <path class="st0" d="M345.4,131.91h46.12v137.59h35.76v43.79h-81.88v-181.38Z"/>
  <path class="st0" d="M434.54,131.91h46.12v181.38h-46.12v-181.38Z"/>
  <path class="st0" d="M587.93,131.91h45.34c19.43,0,36.53,4.92,47.94,16.32,9.85,9.85,15.55,24.1,15.55,43.79v2.85c0,26.17-9.59,39.39-21.25,48.45l23.84,69.96h-49.23l-16.07-54.67h-.52v54.67h-45.6v-181.38ZM634.83,221.56c8.55,0,14.51-5.96,14.51-22.02v-5.7c0-16.07-5.96-22.03-14.51-22.03h-1.29v49.75h1.29Z"/>
  <path class="st0" d="M703.76,131.91h87.84v43.79h-41.72v25.13h37.31v42.5h-37.31v26.17h42.5v43.79h-88.62v-181.38Z"/>
  <path class="st0" d="M394.52,341.39h33.7l20.95,110.39h-27.87l-2.52-17.79h-15.43l-2.52,17.79h-27.24l20.94-110.39ZM401.14,320.92h20.63l11.65,16.06h-15.75l-6.3-5.2-6.3,5.2h-15.59l11.66-16.06ZM415.62,411.15l-4.57-32.91-4.57,32.91h9.13Z"/>
</svg>